<svg width="36" height="36" viewBox="0 0 36 36" fill="none" xmlns="http://www.w3.org/2000/svg">
<path d="M10.2317 15.0861C10.2317 15.5249 10.279 15.8807 10.3625 16.1408C10.457 16.4013 10.5757 16.6859 10.7414 16.9936C10.7996 17.0881 10.8238 17.1826 10.8238 17.2661C10.8238 17.3837 10.7523 17.5023 10.5988 17.6208L9.85261 18.1186C9.74602 18.1889 9.63942 18.2252 9.5452 18.2252C9.42652 18.2252 9.30783 18.1658 9.18914 18.0592C9.02986 17.8874 8.88711 17.7009 8.76277 17.5023C8.63099 17.2745 8.50864 17.0413 8.39602 16.8034C7.47295 17.8933 6.31195 18.4383 4.91414 18.4383C3.91992 18.4383 3.1268 18.1537 2.54573 17.5856C1.96552 17.0166 1.66992 16.2587 1.66992 15.3114C1.66992 14.3051 2.02486 13.4878 2.74795 12.8727C3.46964 12.2562 4.4287 11.9485 5.64933 11.9485C6.05152 11.9485 6.46552 11.9837 6.9037 12.043C7.34245 12.1023 7.79273 12.1968 8.26636 12.3034V11.4389C8.26636 10.5389 8.07623 9.91169 7.70948 9.54494C7.3298 9.17791 6.69052 8.99988 5.7787 8.99988C5.36442 8.99988 4.93833 9.04713 4.49986 9.15372C4.06453 9.25745 3.63716 9.39213 3.22102 9.55675C3.03089 9.63916 2.88914 9.68641 2.80673 9.7106C2.72348 9.73366 2.66414 9.74575 2.61689 9.74575C2.45095 9.74575 2.36855 9.62707 2.36855 9.379V8.79878C2.36855 8.60866 2.39161 8.46691 2.45095 8.38366C2.51002 8.30125 2.61689 8.21885 2.78283 8.13532C3.19683 7.92213 3.69464 7.74438 4.27458 7.60235C4.8548 7.4485 5.47102 7.37735 6.12239 7.37735C7.53089 7.37735 8.56139 7.69685 9.22514 8.33641C9.87652 8.97569 10.2073 9.94685 10.2073 11.2499V15.0861H10.2317ZM5.42405 16.887C5.81414 16.887 6.21717 16.8155 6.64355 16.6738C7.06992 16.5309 7.44877 16.2708 7.76855 15.9158C7.95755 15.6908 8.10042 15.4422 8.17073 15.1578C8.24217 14.8732 8.28942 14.5307 8.28942 14.1271V13.6307C7.93067 13.5425 7.56717 13.475 7.2007 13.4284C6.83118 13.3818 6.45912 13.3584 6.08667 13.3581C5.29355 13.3581 4.71333 13.512 4.32211 13.8318C3.93202 14.1513 3.74217 14.6007 3.74217 15.193C3.74217 15.7499 3.88392 16.1642 4.18036 16.4485C4.46498 16.7441 4.87927 16.887 5.42405 16.887ZM14.9328 18.1658C14.7196 18.1658 14.5779 18.1307 14.4834 18.0471C14.3878 17.9757 14.3054 17.8109 14.2339 17.5859L11.4512 8.43175C11.3809 8.19466 11.3444 8.04082 11.3444 7.95728C11.3444 7.76828 11.4391 7.66197 11.6293 7.66197H12.7894C13.0144 7.66197 13.1683 7.69685 13.2518 7.78038C13.3463 7.85069 13.4177 8.01663 13.488 8.24163L15.4776 16.0818L17.3254 8.24191C17.3839 8.00566 17.4554 7.85097 17.5496 7.78066C17.6452 7.70894 17.8111 7.66169 18.0243 7.66169H18.9713C19.1963 7.66169 19.3504 7.69685 19.4449 7.78038C19.5394 7.85069 19.623 8.01663 19.6699 8.24163L21.5411 16.1763L23.59 8.24191C23.6603 8.00566 23.7438 7.85097 23.8262 7.78066C23.9207 7.70894 24.0757 7.66169 24.2886 7.66169H25.3894C25.5795 7.66169 25.6861 7.75619 25.6861 7.95728C25.6861 8.01635 25.674 8.07597 25.662 8.14741C25.6499 8.21885 25.6268 8.31335 25.5795 8.44272L22.7254 17.5977C22.654 17.8339 22.5716 17.9878 22.476 18.0589C22.3815 18.1307 22.2276 18.1779 22.0265 18.1779H21.0084C20.7831 18.1779 20.6293 18.1413 20.5348 18.0592C20.4391 17.9757 20.3567 17.8218 20.3095 17.5856L18.4738 9.94685L16.6499 17.5735C16.5908 17.8109 16.5205 17.9647 16.4249 18.0471C16.3301 18.1307 16.1644 18.1658 15.9512 18.1658H14.9328ZM30.1499 18.4856C29.5348 18.4856 28.9183 18.4142 28.3262 18.2724C27.7339 18.1307 27.2727 17.9757 26.965 17.7988C26.7749 17.6922 26.6452 17.5738 26.598 17.4669C26.5513 17.3625 26.5269 17.2494 26.5265 17.135V16.5309C26.5265 16.2828 26.621 16.1642 26.7993 16.1642C26.8696 16.1642 26.9408 16.1763 27.0122 16.2004C27.0825 16.2235 27.1891 16.2708 27.3075 16.318C27.7262 16.5018 28.163 16.641 28.6109 16.7331C29.0842 16.8276 29.5457 16.8749 30.0202 16.8749C30.7664 16.8749 31.3463 16.7441 31.7485 16.4839C32.1515 16.2235 32.3647 15.8444 32.3647 15.3589C32.3647 15.0271 32.2581 14.7557 32.0452 14.5304C31.832 14.3054 31.4287 14.104 30.8488 13.9142L29.1315 13.3812C28.2669 13.1087 27.6273 12.7068 27.2375 12.1738C26.8466 11.6521 26.6452 11.0718 26.6452 10.4568C26.6452 9.95894 26.7521 9.52075 26.965 9.14163C27.1764 8.76066 27.4671 8.42949 27.8175 8.17047C28.1724 7.89907 28.5757 7.69685 29.0493 7.5551C29.5227 7.41335 30.0202 7.354 30.5411 7.354C30.8015 7.354 31.0738 7.3661 31.3342 7.40125C31.6067 7.43641 31.8551 7.48366 32.1043 7.53091C32.3405 7.59025 32.5658 7.6496 32.779 7.72103C32.9922 7.79247 33.1581 7.86279 33.2768 7.93422C33.4427 8.02872 33.5611 8.12322 33.6315 8.22953C33.7029 8.32516 33.738 8.4551 33.738 8.62075V9.17763C33.738 9.42625 33.6435 9.55675 33.4655 9.55675C33.371 9.55675 33.2172 9.50866 33.0164 9.41416C32.3405 9.10647 31.5825 8.95263 30.7422 8.95263C30.0675 8.95263 29.5348 9.05922 29.1677 9.2845C28.7996 9.50866 28.6109 9.85263 28.6109 10.3381C28.6109 10.6699 28.7293 10.9543 28.9655 11.1784C29.2029 11.4034 29.6414 11.629 30.2685 11.8298L31.9504 12.3628C32.8032 12.6353 33.4185 13.0142 33.7853 13.4999C34.1523 13.9856 34.3304 14.5425 34.3304 15.1578C34.3304 15.6675 34.2235 16.129 34.0227 16.5309C33.8095 16.9342 33.5249 17.2892 33.1581 17.5735C32.7911 17.8691 32.3526 18.0823 31.8441 18.2373C31.3111 18.4021 30.7543 18.4856 30.1499 18.4856Z" fill="#252F3E"/>
<path d="M33.1874 20.6294C31.9409 20.6471 30.4694 20.9252 29.3565 21.7071C29.0126 21.9555 29.0719 22.287 29.451 22.2398C30.7189 22.086 33.5123 21.7544 34.0101 22.3936C34.5079 23.0208 33.4543 25.6618 32.9799 26.8346C32.8381 27.189 33.1458 27.3321 33.4653 27.0596C35.5494 25.3071 36.0944 21.6478 35.6681 21.1148C35.4552 20.8546 34.4339 20.6114 33.1874 20.6294ZM0.45837 21.3356C0.197652 21.3682 0.0795267 21.6832 0.35487 21.9321C4.99775 26.1233 11.1433 28.6461 17.9648 28.6461C22.8318 28.6461 28.492 27.1189 32.3876 24.2417C33.0268 23.767 32.4711 23.0453 31.8194 23.3406C27.4505 25.1884 22.701 26.0884 18.3791 26.0884C11.9727 26.0884 5.77906 24.3241 0.757902 21.4104C0.648214 21.3454 0.545558 21.3249 0.458652 21.3356H0.45837Z" fill="#FF9900"/>
</svg>
