<svg width="168" height="36" viewBox="0 0 168 36" fill="none" xmlns="http://www.w3.org/2000/svg">
<g clip-path="url(#clip0_531_3855)">
<path d="M167.567 16.183V13.2359H163.907V8.65474L163.784 8.69237L160.347 9.74423L160.279 9.76485V13.2359H154.854V11.3024C154.854 10.402 155.055 9.71281 155.452 9.25365C155.846 8.79939 156.41 8.56866 157.129 8.56866C157.646 8.56866 158.181 8.69041 158.719 8.9303L158.854 8.99052V5.88732L158.791 5.86441C158.288 5.68343 157.605 5.59277 156.758 5.59277C155.691 5.59277 154.721 5.82481 153.875 6.28528C153.041 6.7336 152.354 7.4126 151.897 8.24106C151.432 9.07692 151.196 10.042 151.196 11.1103V13.2362H148.648V16.1833H151.196V28.5978H154.854V16.183H160.279V24.0722C160.279 27.3214 161.812 28.9682 164.834 28.9682C165.357 28.9652 165.877 28.9073 166.388 28.7954C166.931 28.6786 167.301 28.5618 167.519 28.4371L167.567 28.4086V25.4343L167.418 25.5328C167.219 25.6654 166.972 25.7734 166.682 25.8536C166.391 25.9354 166.148 25.9766 165.96 25.9766C165.252 25.9766 164.728 25.7858 164.403 25.4091C164.074 25.0295 163.907 24.3648 163.907 23.4354V16.183H167.567ZM140.479 25.977C139.151 25.977 138.105 25.5364 137.367 24.6695C136.625 23.7976 136.248 22.5553 136.248 20.9762C136.248 19.3474 136.625 18.0727 137.367 17.1854C138.105 16.3044 139.142 15.857 140.449 15.857C141.717 15.857 142.727 16.2841 143.45 17.1275C144.177 17.9748 144.546 19.2394 144.546 20.8872C144.546 22.5553 144.199 23.8369 143.515 24.694C142.836 25.545 141.815 25.977 140.479 25.977ZM140.642 12.8658C138.109 12.8658 136.097 13.608 134.663 15.0719C133.229 16.5361 132.502 18.5619 132.502 21.0944C132.502 23.4995 133.212 25.434 134.611 26.8436C136.01 28.2535 137.915 28.9676 140.271 28.9676C142.727 28.9676 144.699 28.2152 146.133 26.731C147.566 25.2484 148.293 23.2416 148.293 20.7681C148.293 18.3256 147.611 16.3767 146.266 14.9767C144.92 13.5759 143.028 12.8658 140.642 12.8658ZM126.604 12.8658C124.881 12.8658 123.456 13.3066 122.367 14.1755C121.272 15.0496 120.716 16.1964 120.716 17.5837C120.716 18.3047 120.836 18.9452 121.072 19.4884C121.309 20.0337 121.677 20.5135 122.165 20.9163C122.65 21.3159 123.397 21.7345 124.389 22.16C125.222 22.503 125.843 22.7932 126.238 23.0217C126.624 23.2459 126.898 23.471 127.052 23.6903C127.202 23.9047 127.278 24.1986 127.278 24.5608C127.278 25.5931 126.506 26.0951 124.916 26.0951C124.325 26.0951 123.653 25.972 122.916 25.7292C122.184 25.4899 121.493 25.1397 120.868 24.6908L120.716 24.5821V28.1036L120.772 28.1298C121.289 28.3687 121.942 28.5699 122.711 28.7287C123.479 28.8871 124.176 28.9679 124.782 28.9679C126.652 28.9679 128.158 28.5251 129.256 27.651C130.362 26.7706 130.922 25.5973 130.922 24.1616C130.922 23.1264 130.621 22.2382 130.026 21.5221C129.436 20.8119 128.411 20.1597 126.981 19.5834C125.842 19.1262 125.112 18.7468 124.811 18.4556C124.521 18.1741 124.374 17.7762 124.374 17.2725C124.374 16.8254 124.556 16.4677 124.929 16.1778C125.306 15.8865 125.829 15.7382 126.486 15.7382C127.096 15.7382 127.719 15.8344 128.339 16.023C128.959 16.2118 129.503 16.4648 129.958 16.7737L130.107 16.8758V13.535L130.049 13.5105C129.631 13.3305 129.077 13.1767 128.407 13.0523C127.738 12.9286 127.131 12.8658 126.604 12.8658ZM111.18 25.977C109.852 25.977 108.805 25.5364 108.068 24.6695C107.325 23.7976 106.95 22.5553 106.95 20.9762C106.95 19.3474 107.326 18.0727 108.069 17.1854C108.806 16.3044 109.842 15.857 111.15 15.857C112.418 15.857 113.428 16.2841 114.151 17.1275C114.878 17.9748 115.247 19.2394 115.247 20.8872C115.247 22.5553 114.9 23.8369 114.216 24.694C113.537 25.545 112.516 25.977 111.18 25.977ZM111.343 12.8658C108.809 12.8658 106.797 13.608 105.364 15.0719C103.93 16.5361 103.203 18.5619 103.203 21.0944C103.203 23.5005 103.913 25.434 105.312 26.8436C106.711 28.2535 108.616 28.9676 110.972 28.9676C113.427 28.9676 115.4 28.2152 116.834 26.731C118.267 25.2484 118.994 23.2416 118.994 20.7681C118.994 18.3256 118.312 16.3767 116.967 14.9767C115.621 13.5759 113.728 12.8658 111.343 12.8658ZM97.6498 15.8963V13.2359H94.0364V28.5971H97.6495V20.739C97.6495 19.4027 97.9525 18.305 98.5505 17.476C99.1405 16.6569 99.9273 16.2416 100.887 16.2416C101.213 16.2416 101.578 16.2952 101.974 16.4016C102.365 16.507 102.649 16.6215 102.816 16.742L102.968 16.8523V13.2097L102.909 13.1845C102.573 13.0415 102.097 12.9695 101.495 12.9695C100.587 12.9695 99.7741 13.2611 99.0784 13.8355C98.4673 14.3404 98.0255 15.033 97.6881 15.8963H97.6498ZM87.5656 12.8658C85.9079 12.8658 84.429 13.2215 83.1713 13.9222C81.9113 14.6242 80.9363 15.6273 80.2733 16.902C79.6132 18.1741 79.278 19.6599 79.278 21.3169C79.278 22.768 79.603 24.1 80.2451 25.2736C80.8879 26.4495 81.7977 27.3695 82.9491 28.0077C84.0991 28.6449 85.4281 28.9679 86.8992 28.9679C88.6164 28.9679 90.0826 28.6246 91.2585 27.9478L91.3056 27.9203V24.6099L91.1541 24.7209C90.6132 25.1129 90.0175 25.423 89.3862 25.6412C88.7473 25.864 88.1655 25.9766 87.6549 25.9766C86.2368 25.9766 85.0989 25.5332 84.2725 24.6587C83.4445 23.7826 83.0247 22.553 83.0247 21.0054C83.0247 19.4482 83.4625 18.1869 84.3252 17.2558C85.1856 16.328 86.3259 15.8574 87.7145 15.8574C88.9021 15.8574 90.0594 16.2596 91.1541 17.0539L91.3056 17.1638V13.6758L91.2569 13.6483C90.8445 13.4175 90.2829 13.2271 89.5852 13.0827C88.8907 12.9387 88.2113 12.8658 87.5656 12.8658ZM76.7895 13.2359H73.1757V28.5971H76.7895V13.2359ZM75.0196 6.69208C74.4249 6.69208 73.9062 6.89466 73.4801 7.29557C73.052 7.69812 72.8347 8.20474 72.8347 8.80234C72.8347 9.39077 73.0494 9.8879 73.4729 10.2796C73.8941 10.6701 74.4144 10.8681 75.0196 10.8681C75.6244 10.8681 76.1467 10.6701 76.5728 10.2803C77.0015 9.8879 77.2192 9.39077 77.2192 8.80234C77.2192 8.22568 77.0074 7.72397 76.5905 7.31194C76.1739 6.90056 75.645 6.69208 75.0196 6.69208ZM66.0039 12.1029V28.5968H69.6916V7.16237H64.5877L58.1002 23.0832L51.8048 7.16237H46.4932V28.5971H49.9587V12.1012H50.0778L56.7257 28.5971H59.3406L65.8847 12.1026L66.0039 12.1029Z" fill="#706D6E"/>
<path d="M17.0011 16.9982H0.00292969V0H17.0011V16.9982Z" fill="#F1511B"/>
<path d="M35.7697 16.9982H18.7715V0H35.7697V16.9982Z" fill="#80CC28"/>
<path d="M17.0008 35.7736H0.00292969V18.7754H17.0008V35.7736Z" fill="#00ADEF"/>
<path d="M35.7697 35.7736H18.7715V18.7754H35.7697V35.7736Z" fill="#FBBC09"/>
</g>
<defs>
<clipPath id="clip0_531_3855">
<rect width="167.57" height="36" fill="white"/>
</clipPath>
</defs>
</svg>
