<svg width="110" height="36" viewBox="0 0 110 36" fill="none" xmlns="http://www.w3.org/2000/svg">
<g clip-path="url(#clip0_531_3844)">
<path d="M106.3 22.0013L109.343 24.0304C108.355 25.4854 105.993 27.9818 101.908 27.9818C96.8353 27.9818 93.0576 24.0572 93.0576 19.0645C93.0576 13.7517 96.8753 10.1475 101.481 10.1475C106.113 10.1475 108.382 13.8317 109.116 15.8207L109.517 16.8353L97.5829 21.7744C98.4906 23.5632 99.9058 24.471 101.908 24.471C103.91 24.471 105.298 23.4831 106.3 22.0013ZM96.9422 18.7845L104.911 15.4737C104.471 14.3659 103.163 13.5784 101.601 13.5784C99.612 13.5784 96.8488 15.3405 96.9422 18.7845Z" fill="#FF302F"/>
<path d="M87.3042 1.05664H91.1485V27.1674H87.3042V1.05664Z" fill="#20B15A"/>
<path d="M81.2441 10.8411H84.9551V26.6998C84.9551 33.2807 81.0705 35.9906 76.4784 35.9906C72.1534 35.9906 69.5505 33.0806 68.5759 30.7179L71.9799 29.3027C72.5938 30.7577 74.0756 32.4799 76.4784 32.4799C79.4284 32.4799 81.2441 30.651 81.2441 27.2338V25.9524H81.1106C80.2295 27.0201 78.5475 27.9812 76.4117 27.9812C71.9531 27.9812 67.8682 24.0966 67.8682 19.0909C67.8682 14.0582 71.9531 10.1338 76.4117 10.1338C78.5342 10.1338 80.2295 11.0816 81.1106 12.1228H81.2441V10.8411ZM81.5109 19.0909C81.5109 15.9405 79.4152 13.6444 76.7454 13.6444C74.0488 13.6444 71.7795 15.9405 71.7795 19.0909C71.7795 22.2011 74.0488 24.4571 76.7454 24.4571C79.4154 24.4706 81.5111 22.2011 81.5111 19.0909" fill="#3686F7"/>
<path d="M46.7633 19.0241C46.7633 24.1635 42.7588 27.9412 37.8463 27.9412C32.934 27.9412 28.9292 24.1503 28.9292 19.0241C28.9292 13.8581 32.934 10.0938 37.8463 10.0938C42.7588 10.0938 46.7633 13.8581 46.7633 19.0241ZM42.8655 19.0241C42.8655 15.8205 40.5426 13.6177 37.8463 13.6177C35.1499 13.6177 32.8271 15.8205 32.8271 19.0241C32.8271 22.2011 35.1499 24.4305 37.8463 24.4305C40.5428 24.4305 42.8655 22.2011 42.8655 19.0241Z" fill="#FF302F"/>
<path d="M66.2394 19.0645C66.2394 24.204 62.2346 27.9816 57.3223 27.9816C52.4098 27.9816 48.4053 24.2037 48.4053 19.0645C48.4053 13.8985 52.4098 10.1475 57.3223 10.1475C62.2346 10.1475 66.2394 13.8852 66.2394 19.0645ZM62.3281 19.0645C62.3281 15.861 60.0054 13.6581 57.3088 13.6581C54.6125 13.6581 52.2896 15.861 52.2896 19.0645C52.2896 22.2415 54.6125 24.471 57.3088 24.471C60.0187 24.471 62.3281 22.2282 62.3281 19.0645Z" fill="#FFBA40"/>
<path d="M14.272 24.0707C8.67868 24.0707 4.3004 19.5587 4.3004 13.9654C4.3004 8.37231 8.67868 3.86031 14.272 3.86031C17.2889 3.86031 19.4913 5.04831 21.1199 6.57016L23.8032 3.88709C21.5339 1.71124 18.5037 0.0556641 14.272 0.0556641C6.60975 0.0558783 0.162109 6.30338 0.162109 13.9654C0.162109 21.6278 6.60975 27.8751 14.272 27.8751C18.4103 27.8751 21.5339 26.5135 23.9768 23.9772C26.4863 21.4675 27.2605 17.9434 27.2605 15.0867C27.2605 14.1923 27.1538 13.2713 27.0335 12.5905H14.272V16.3015H23.3626C23.0956 18.6244 22.3615 20.2129 21.2802 21.2939C19.972 22.6157 17.903 24.0707 14.272 24.0707Z" fill="#3686F7"/>
</g>
<defs>
<clipPath id="clip0_531_3844">
<rect width="109.72" height="36" fill="white"/>
</clipPath>
</defs>
</svg>
