<svg width="36" height="36" viewBox="0 0 36 36" fill="none" xmlns="http://www.w3.org/2000/svg">
<path d="M36 7.64711C36 7.91303 35.9476 8.17636 35.8459 8.42204C35.7441 8.66772 35.5949 8.89096 35.4069 9.079C35.2189 9.26704 34.9956 9.4162 34.7499 9.51796C34.5042 9.61973 34.2409 9.67211 33.975 9.67211C33.7088 9.6725 33.4452 9.62041 33.1991 9.51882C32.9531 9.41723 32.7295 9.26814 32.5412 9.08006C32.3528 8.89198 32.2034 8.66861 32.1014 8.42273C31.9995 8.17685 31.947 7.91329 31.947 7.64711C31.9468 7.38093 31.9991 7.11732 32.1009 6.87136C32.2026 6.62541 32.3519 6.40193 32.5401 6.21371C32.7283 6.0255 32.9518 5.87623 33.1978 5.77446C33.4437 5.67269 33.7073 5.62041 33.9735 5.62061C34.2396 5.62041 34.503 5.67264 34.7489 5.77432C34.9948 5.876 35.2182 6.02513 35.4064 6.21318C35.5946 6.40124 35.7439 6.62454 35.8457 6.87033C35.9476 7.11611 36 7.38105 36 7.64711ZM24.8235 27.4651C24.3643 27.4718 23.9084 27.3862 23.4828 27.2136C23.0572 27.0409 22.6706 26.7846 22.3458 26.4598C22.021 26.1351 21.7647 25.7484 21.592 25.3228C21.4194 24.8973 21.3338 24.4413 21.3405 23.9821H18.3C18.3 27.6556 21.15 30.3781 24.759 30.3781C28.368 30.3781 31.281 27.5926 31.281 23.9821H28.305C28.2405 26.0086 26.7225 27.4651 24.8235 27.4651ZM32.4855 23.2231H35.4615V11.0656H32.4855V23.2231ZM0 23.2246H2.976V6.00011H0V23.2246ZM10.7025 10.6861C7.029 10.6861 4.242 13.4731 4.242 17.0821C4.2348 17.9324 4.397 18.7757 4.71914 19.5627C5.04128 20.3497 5.5169 21.0647 6.11828 21.6659C6.71965 22.2671 7.43473 22.7426 8.22179 23.0645C9.00886 23.3865 9.85216 23.5485 10.7025 23.5411C14.3115 23.5411 17.1615 20.7541 17.1615 17.1451C17.1615 13.5361 14.3745 10.6861 10.7025 10.6861ZM10.7025 20.6281C8.7375 20.6281 7.2195 19.1086 7.2195 17.0821C7.21283 16.6229 7.29836 16.167 7.47104 15.7414C7.64372 15.3158 7.90002 14.9292 8.22479 14.6044C8.54955 14.2796 8.93617 14.0233 9.36176 13.8506C9.78735 13.678 10.2433 13.5924 10.7025 13.5991C11.1616 13.5926 11.6174 13.6783 12.0428 13.8511C12.4682 14.0239 12.8546 14.2802 13.1792 14.6049C13.5038 14.9297 13.76 15.3162 13.9326 15.7417C14.1052 16.1672 14.1907 16.623 14.184 17.0821C14.184 19.0456 12.729 20.6281 10.7025 20.6281ZM31.155 13.4731V11.0656H26.913C26.217 10.7506 25.5195 10.6861 24.8235 10.6861C21.15 10.6861 18.3015 13.4731 18.3015 17.1451C18.3015 20.8186 21.1515 23.5411 24.7605 23.5411C28.3695 23.5411 31.2195 20.7541 31.2195 17.1451C31.2195 15.8791 30.8385 14.7391 30.2055 13.8526L31.155 13.4731ZM24.8235 20.6281C22.86 20.6281 21.3405 19.1086 21.3405 17.0821C21.3338 16.6229 21.4194 16.167 21.592 15.7414C21.7647 15.3158 22.021 14.9292 22.3458 14.6044C22.6706 14.2796 23.0572 14.0233 23.4828 13.8506C23.9084 13.678 24.3643 13.5924 24.8235 13.5991C25.2827 13.5924 25.7386 13.678 26.1642 13.8506C26.5898 14.0233 26.9764 14.2796 27.3012 14.6044C27.626 14.9292 27.8823 15.3158 28.055 15.7414C28.2276 16.167 28.3132 16.6229 28.3065 17.0821C28.3065 19.0456 26.7225 20.6281 24.8235 20.6281Z" fill="#0F91D2"/>
</svg>
